<?xml version="1.0" encoding="UTF-8"?>
<svg width="429px" height="126px" viewBox="0 0 429 126" version="1.1" xmlns="http://www.w3.org/2000/svg" xmlns:xlink="http://www.w3.org/1999/xlink">
    <!-- Generator: Sketch 51.3 (57544) - http://www.bohemiancoding.com/sketch -->
    <title>Group 392</title>
    <desc>Created with Sketch.</desc>
    <defs>
        <path d="M429,125.807 C427.408,125.807 425.815,125.807 424.223,125.807 C419.721,125.807 415.22,125.807 410.719,125.807 C403.722,125.807 396.726,125.807 389.73,125.807 C380.653,125.807 371.576,125.807 362.5,125.807 C351.756,125.807 341.013,125.807 330.269,125.807 C318.273,125.807 306.277,125.807 294.281,125.807 C281.446,125.807 268.612,125.807 255.777,125.807 C242.518,125.807 229.259,125.807 216,125.807 C202.731,125.807 189.461,125.807 176.192,125.807 C163.326,125.807 150.461,125.807 137.595,125.807 C125.547,125.807 113.499,125.807 101.451,125.807 C90.635,125.807 79.82,125.807 69.004,125.807 C59.833,125.807 50.663,125.807 41.493,125.807 C34.383,125.807 27.273,125.807 20.163,125.807 C15.528,125.807 10.892,125.807 6.256,125.807 C4.508,125.807 2.76,125.807 1.012,125.807 C0.986,125.807 1,113.256 1,112.55 C1,101.396 1,90.241 1,79.087 C1,65.987 1,52.887 1,39.787 C1,29.545 1,19.303 1,9.062 C1,6.514 1,3.967 1,1.419 C1,0.948 0.739,0.314 1.284,0.314 C3.613,0.314 5.941,0.314 8.269,0.314 C13.407,0.314 18.545,0.314 23.683,0.314 C31.216,0.314 38.749,0.314 46.283,0.314 C55.797,0.314 65.312,0.314 74.826,0.314 C85.908,0.314 96.99,0.314 108.072,0.314 C120.307,0.314 132.542,0.314 144.777,0.314 C157.752,0.314 170.726,0.314 183.7,0.314 C196.999,0.314 210.299,0.314 223.598,0.314 C236.808,0.314 250.018,0.314 263.229,0.314 C275.936,0.314 288.643,0.314 301.35,0.314 C313.14,0.314 324.93,0.314 336.72,0.314 C347.179,0.314 357.637,0.314 368.096,0.314 C376.809,0.314 385.523,0.314 394.236,0.314 C400.79,0.314 407.344,0.314 413.898,0.314 C417.879,0.314 421.859,0.314 425.84,0.314 C426.736,0.314 427.631,0.314 428.527,0.314 C429.098,0.314 429,0.299 429,0.91 C429,7.373 429,13.835 429,20.298 C429,32.358 429,44.417 429,56.477 C429,69.329 429,82.181 429,95.033 C429,103.874 429,112.715 429,121.556 C429,122.973 429,124.39 429,125.807" id="path-1"></path>
    </defs>
    <g id="Page-1" stroke="none" stroke-width="1" fill="none" fill-rule="evenodd">
        <g id="66" transform="translate(-10.000000, -18.000000)">
            <g id="Group-392" transform="translate(10.000000, 18.000000)">
                <mask id="mask-2" fill="white">
                    <use xlink:href="#path-1"></use>
                </mask>
                <g id="Clip-275"></g>
                <path d="M1,39.787 C1,52.887 1,65.987 1,79.087 C1,90.241 1,101.396 1,112.55 C1,113.256 0.986,125.807 1.012,125.807 C2.76,125.807 4.508,125.807 6.256,125.807 C10.891,125.807 15.527,125.807 20.163,125.807 C27.273,125.807 34.383,125.807 41.493,125.807 C50.663,125.807 59.833,125.807 69.004,125.807 C79.82,125.807 90.635,125.807 101.451,125.807 C113.499,125.807 125.547,125.807 137.595,125.807 C150.461,125.807 163.326,125.807 176.192,125.807 C189.461,125.807 202.731,125.807 216,125.807 C229.259,125.807 242.518,125.807 255.777,125.807 C268.612,125.807 281.446,125.807 294.281,125.807 C306.277,125.807 318.273,125.807 330.269,125.807 C341.013,125.807 351.756,125.807 362.5,125.807 C371.576,125.807 380.653,125.807 389.73,125.807 C396.726,125.807 403.723,125.807 410.719,125.807 C415.22,125.807 419.721,125.807 424.223,125.807 C425.815,125.807 427.408,125.807 429,125.807 C429,124.39 429,122.973 429,121.556 C429,112.715 429,103.874 429,95.033 C429,82.181 429,69.329 429,56.477 C429,44.417 429,32.358 429,20.298 C429,13.836 429,7.373 429,0.91 C429,0.299 429.098,0.314 428.527,0.314 C427.631,0.314 426.736,0.314 425.84,0.314 C421.859,0.314 417.879,0.314 413.898,0.314 C407.344,0.314 400.79,0.314 394.236,0.314 C385.523,0.314 376.809,0.314 368.096,0.314 C357.637,0.314 347.179,0.314 336.72,0.314 C324.93,0.314 313.14,0.314 301.35,0.314 C288.643,0.314 275.936,0.314 263.229,0.314 C250.018,0.314 236.808,0.314 223.598,0.314 C210.299,0.314 196.999,0.314 183.7,0.314 C170.726,0.314 157.752,0.314 144.777,0.314 C132.542,0.314 120.307,0.314 108.072,0.314 C96.99,0.314 85.908,0.314 74.826,0.314 C65.312,0.314 55.797,0.314 46.283,0.314 C38.749,0.314 31.216,0.314 23.683,0.314 C18.545,0.314 13.407,0.314 8.269,0.314 C5.941,0.314 3.613,0.314 1.284,0.314 C0.739,0.314 1,0.948 1,1.419 C1,3.967 1,6.514 1,9.062 C1,19.303 1,29.545 1,39.787" id="Fill-274" fill="#FFFFFE" mask="url(#mask-2)"></path>
                <path d="M137.105,103.552 C127.714,103.552 120.102,111.165 120.102,120.557 C129.492,120.557 137.105,112.943 137.105,103.552" id="Fill-276" fill="#DFC64C" mask="url(#mask-2)"></path>
                <path d="M121.132,121.759 C121.132,130.013 127.822,136.703 136.074,136.703 C136.074,128.45 129.385,121.759 121.132,121.759" id="Fill-277" fill="#264869" mask="url(#mask-2)"></path>
                <path d="M340.966,135.501 C340.966,128.576 335.352,122.962 328.428,122.962 C328.428,129.887 334.042,135.501 340.966,135.501" id="Fill-278" fill="#B4B5B4" mask="url(#mask-2)"></path>
                <path d="M136.504,69.799 C127.777,69.799 120.703,76.874 120.703,85.602 C129.429,85.602 136.504,78.526 136.504,69.799" id="Fill-279" fill="#B4B5B4" mask="url(#mask-2)"></path>
                <path d="M339.849,65.676 C339.849,59.984 335.236,55.37 329.545,55.37 C329.545,61.062 334.158,65.676 339.849,65.676" id="Fill-280" fill="#264869" mask="url(#mask-2)"></path>
                <path d="M427.181,88.264 C419.878,88.264 413.957,94.186 413.957,101.491 C421.261,101.491 427.181,95.569 427.181,88.264" id="Fill-281" fill="#DFC64C" mask="url(#mask-2)"></path>
                <path d="M288.154,21.188 C282.653,21.188 278.193,25.648 278.193,31.151 C283.694,31.151 288.154,26.69 288.154,21.188" id="Fill-282" fill="#DFC64C" mask="url(#mask-2)"></path>
                <path d="M118.51,19.041 C110.638,19.041 104.256,25.424 104.256,33.298 C112.128,33.298 118.51,26.915 118.51,19.041" id="Fill-283" fill="#B4B5B4" mask="url(#mask-2)"></path>
                <path d="M327.312,119.44 C335.469,119.44 342.082,112.827 342.082,104.668 C333.925,104.668 327.312,111.282 327.312,119.44" id="Fill-284" fill="#264869" mask="url(#mask-2)"></path>
                <path d="M236.201,133.783 C236.201,128.755 232.126,124.679 227.099,124.679 C227.099,129.707 231.174,133.783 236.201,133.783" id="Fill-285" fill="#264869" mask="url(#mask-2)"></path>
                <path d="M257.24,120.471 C257.24,111.174 249.705,103.638 240.409,103.638 C240.409,112.934 247.945,120.471 257.24,120.471" id="Fill-286" fill="#B4B5B4" mask="url(#mask-2)"></path>
                <path d="M324.306,122.446 C316.813,122.446 310.739,128.522 310.739,136.016 C318.232,136.016 324.306,129.941 324.306,122.446" id="Fill-287" fill="#264869" mask="url(#mask-2)"></path>
                <path d="M294.251,118.152 C300.986,118.152 306.445,112.692 306.445,105.956 C299.71,105.956 294.251,111.417 294.251,118.152" id="Fill-288" fill="#B4B5B4" mask="url(#mask-2)"></path>
                <path d="M324.822,119.355 C324.822,111.291 318.286,104.754 310.223,104.754 C310.223,112.818 316.759,119.355 324.822,119.355" id="Fill-289" fill="#DFC64C" mask="url(#mask-2)"></path>
                <path d="M191.462,117.895 C197.912,117.895 203.141,112.665 203.141,106.214 C196.691,106.214 191.462,111.444 191.462,117.895" id="Fill-290" fill="#B4B5B4" mask="url(#mask-2)"></path>
                <path d="M322.589,82.768 C322.589,77.17 318.052,72.633 312.456,72.633 C312.456,78.23 316.993,82.768 322.589,82.768" id="Fill-291" fill="#264869" mask="url(#mask-2)"></path>
                <path d="M307.819,102.349 C307.819,94.096 301.129,87.405 292.877,87.405 C292.877,95.659 299.567,102.349 307.819,102.349" id="Fill-292" fill="#B4B5B4" mask="url(#mask-2)"></path>
                <path d="M134.614,37.334 C127.975,37.334 122.592,42.718 122.592,49.358 C129.232,49.358 134.614,43.975 134.614,37.334" id="Fill-293" fill="#264869" mask="url(#mask-2)"></path>
                <path d="M122.335,54.254 C122.335,61.179 127.948,66.793 134.872,66.793 C134.872,59.868 129.259,54.254 122.335,54.254" id="Fill-294" fill="#DFC64C" mask="url(#mask-2)"></path>
                <path d="M390.943,124.508 C385.727,124.508 381.497,128.737 381.497,133.955 C386.714,133.955 390.943,129.725 390.943,124.508" id="Fill-295" fill="#264869" mask="url(#mask-2)"></path>
                <path d="M411.81,103.294 C411.81,93.997 404.275,86.461 394.979,86.461 C394.979,95.757 402.515,103.294 411.81,103.294" id="Fill-296" fill="#264869" mask="url(#mask-2)"></path>
                <path d="M392.918,118.753 C392.918,111.354 386.921,105.355 379.522,105.355 C379.522,112.755 385.52,118.753 392.918,118.753" id="Fill-297" fill="#DFC64C" mask="url(#mask-2)"></path>
                <path d="M325.337,16.808 C325.337,8.175 318.34,1.177 309.708,1.177 C309.708,9.809 316.705,16.808 325.337,16.808" id="Fill-298" fill="#264869" mask="url(#mask-2)"></path>
                <path d="M329.888,82.51 C335.2,82.51 339.506,78.203 339.506,72.891 C334.194,72.891 329.888,77.197 329.888,82.51" id="Fill-299" fill="#DFC64C" mask="url(#mask-2)"></path>
                <path d="M342.082,102.263 C342.082,94.105 335.469,87.491 327.312,87.491 C327.312,95.65 333.925,102.263 342.082,102.263" id="Fill-300" fill="#264869" mask="url(#mask-2)"></path>
                <path d="M99.103,99.773 C99.103,94.365 94.72,89.982 89.314,89.982 C89.314,95.389 93.697,99.773 99.103,99.773" id="Fill-301" fill="#264869" mask="url(#mask-2)"></path>
                <path d="M408.805,134.642 C408.805,128.665 403.961,123.821 397.985,123.821 C397.985,129.797 402.829,134.642 408.805,134.642" id="Fill-302" fill="#264869" mask="url(#mask-2)"></path>
                <path d="M427.439,122.361 C419.851,122.361 413.7,128.513 413.7,136.102 C421.288,136.102 427.439,129.95 427.439,122.361" id="Fill-303" fill="#264869" mask="url(#mask-2)"></path>
                <path d="M395.838,119.612 C404.185,119.612 410.952,112.845 410.952,104.496 C402.605,104.496 395.838,111.264 395.838,119.612" id="Fill-304" fill="#B4B5B4" mask="url(#mask-2)"></path>
                <path d="M54.45,83.111 C60.425,83.111 65.27,78.266 65.27,72.289 C59.294,72.289 54.45,77.135 54.45,83.111" id="Fill-305" fill="#264869" mask="url(#mask-2)"></path>
                <path d="M426.323,83.455 C426.323,77.099 421.171,71.946 414.816,71.946 C414.816,78.302 419.968,83.455 426.323,83.455" id="Fill-306" fill="#264869" mask="url(#mask-2)"></path>
                <path d="M295.625,82.424 C300.842,82.424 305.071,78.194 305.071,72.977 C299.854,72.977 295.625,77.206 295.625,82.424" id="Fill-307" fill="#DFC64C" mask="url(#mask-2)"></path>
                <path d="M398.93,13.458 C403.862,13.458 407.86,9.459 407.86,4.526 C402.928,4.526 398.93,8.525 398.93,13.458" id="Fill-308" fill="#B4B5B4" mask="url(#mask-2)"></path>
                <path d="M204.944,102.521 C204.944,94.078 198.1,87.233 189.659,87.233 C189.659,95.677 196.502,102.521 204.944,102.521" id="Fill-309" fill="#264869" mask="url(#mask-2)"></path>
                <path d="M358.226,84.056 C358.226,77.036 352.536,71.345 345.517,71.345 C345.517,78.365 351.207,84.056 358.226,84.056" id="Fill-310" fill="#264869" mask="url(#mask-2)"></path>
                <path d="M361.146,85.602 C369.872,85.602 376.946,78.526 376.946,69.799 C368.22,69.799 361.146,76.874 361.146,85.602" id="Fill-311" fill="#264869" mask="url(#mask-2)"></path>
                <path d="M323.619,54.425 C316.885,54.425 311.426,59.886 311.426,66.621 C318.16,66.621 323.619,61.161 323.619,54.425" id="Fill-312" fill="#B4B5B4" mask="url(#mask-2)"></path>
                <path d="M295.282,48.414 C300.878,48.414 305.414,43.876 305.414,38.279 C299.818,38.279 295.282,42.816 295.282,48.414" id="Fill-313" fill="#264869" mask="url(#mask-2)"></path>
                <path d="M308.849,69.026 C308.849,59.634 301.237,52.021 291.847,52.021 C291.847,61.412 299.459,69.026 308.849,69.026" id="Fill-314" fill="#DFC64C" mask="url(#mask-2)"></path>
                <path d="M152.046,122.962 C145.122,122.962 139.509,128.576 139.509,135.501 C146.433,135.501 152.046,129.887 152.046,122.962" id="Fill-315" fill="#264869" mask="url(#mask-2)"></path>
                <path d="M190.861,84.142 C197.975,84.142 203.742,78.374 203.742,71.259 C196.628,71.259 190.861,77.027 190.861,84.142 L167.32251,67.0089266" id="Fill-316" fill="#264869" mask="url(#mask-2)"></path>
                <path d="M322.417,21.274 C317.011,21.274 312.628,25.657 312.628,31.065 C318.034,31.065 322.417,26.681 322.417,21.274" id="Fill-317" fill="#DFC64C" mask="url(#mask-2)"></path>
                <path d="M329.115,48.929 C335.281,48.929 340.279,43.93 340.279,37.764 C334.113,37.764 329.115,42.763 329.115,48.929" id="Fill-318" fill="#DFC64C" mask="url(#mask-2)"></path>
                <path d="M326.024,51.849 C326.024,42.457 318.411,34.844 309.021,34.844 C309.021,44.235 316.634,51.849 326.024,51.849" id="Fill-319" fill="#264869" mask="url(#mask-2)"></path>
                <path d="M428.985,52.107 C419.689,52.107 412.154,59.643 412.154,68.94 C421.449,68.94 428.985,61.403 428.985,52.107" id="Fill-320" fill="#DFC64C" mask="url(#mask-2)"></path>
                <path d="M258.528,119.526 C266.78,119.526 273.47,112.836 273.47,104.582 C265.218,104.582 258.528,111.273 258.528,119.526" id="Fill-321" fill="#DFC64C" mask="url(#mask-2)"></path>
                <path d="M101.679,33.641 C101.679,25.388 94.99,18.697 86.738,18.697 C86.738,26.951 93.427,33.641 101.679,33.641" id="Fill-322" fill="#B4B5B4" mask="url(#mask-2)"></path>
                <path d="M84.505,18.697 C76.253,18.697 69.563,25.388 69.563,33.641 C77.815,33.641 84.505,26.951 84.505,18.697" id="Fill-323" fill="#264869" mask="url(#mask-2)"></path>
                <path d="M152.132,118.41 C152.132,111.39 146.442,105.699 139.423,105.699 C139.423,112.719 145.113,118.41 152.132,118.41" id="Fill-324" fill="#B4B5B4" mask="url(#mask-2)"></path>
                <path d="M50.843,17.151 C50.843,8.139 43.538,0.833 34.527,0.833 C34.527,9.845 41.832,17.151 50.843,17.151" id="Fill-325" fill="#DFC64C" mask="url(#mask-2)"></path>
                <path d="M255.351,88.35 C248.142,88.35 242.298,94.195 242.298,101.405 C249.507,101.405 255.351,95.56 255.351,88.35" id="Fill-326" fill="#264869" mask="url(#mask-2)"></path>
                <path d="M256.467,85.344 C256.467,76.901 249.624,70.057 241.182,70.057 C241.182,78.5 248.025,85.344 256.467,85.344" id="Fill-327" fill="#B4B5B4" mask="url(#mask-2)"></path>
                <path d="M226.67,82.682 C232.171,82.682 236.631,78.221 236.631,72.719 C231.129,72.719 226.67,77.179 226.67,82.682" id="Fill-328" fill="#264869" mask="url(#mask-2)"></path>
                <path d="M103.311,102.951 C112.227,102.951 119.455,95.721 119.455,86.804 C110.539,86.804 103.311,94.033 103.311,102.951" id="Fill-329" fill="#DFC64C" mask="url(#mask-2)"></path>
                <path d="M227.013,47.984 C232.135,47.984 236.287,43.831 236.287,38.708 C231.165,38.708 227.013,42.861 227.013,47.984" id="Fill-330" fill="#B4B5B4" mask="url(#mask-2)"></path>
                <path d="M254.149,55.198 C248.268,55.198 243.501,59.966 243.501,65.848 C249.381,65.848 254.149,61.08 254.149,55.198" id="Fill-331" fill="#264869" mask="url(#mask-2)"></path>
                <path d="M237.489,66.364 C237.489,59.913 232.261,54.683 225.811,54.683 C225.811,61.134 231.04,66.364 237.489,66.364" id="Fill-332" fill="#DFC64C" mask="url(#mask-2)"></path>
                <path d="M67.674,68.339 C67.674,59.706 60.677,52.708 52.045,52.708 C52.045,61.341 59.043,68.339 67.674,68.339" id="Fill-333" fill="#DFC64C" mask="url(#mask-2)"></path>
                <path d="M82.616,48.929 C82.616,42.763 77.618,37.764 71.452,37.764 C71.452,43.93 76.451,48.929 82.616,48.929" id="Fill-334" fill="#B4B5B4" mask="url(#mask-2)"></path>
                <path d="M123.107,14.489 C129.178,14.489 134.099,9.567 134.099,3.496 C128.029,3.496 123.107,8.417 123.107,14.489" id="Fill-335" fill="#B4B5B4" mask="url(#mask-2)"></path>
                <path d="M359.943,17.065 C359.943,8.148 352.716,0.919 343.799,0.919 C343.799,9.836 351.027,17.065 359.943,17.065" id="Fill-336" fill="#DFC64C" mask="url(#mask-2)"></path>
                <path d="M330.06,13.63 C335.182,13.63 339.334,9.477 339.334,4.354 C334.212,4.354 330.06,8.507 330.06,13.63" id="Fill-337" fill="#DFC64C" mask="url(#mask-2)"></path>
                <path d="M343.198,34.672 C343.198,25.28 335.586,17.667 326.196,17.667 C326.196,27.058 333.808,34.672 343.198,34.672" id="Fill-338" fill="#264869" mask="url(#mask-2)"></path>
                <path d="M184.764,21.531 C179.642,21.531 175.49,25.684 175.49,30.807 C180.612,30.807 184.764,26.654 184.764,21.531" id="Fill-339" fill="#DFC64C" mask="url(#mask-2)"></path>
                <path d="M186.653,49.874 C186.653,42.664 180.809,36.819 173.6,36.819 C173.6,44.029 179.444,49.874 186.653,49.874" id="Fill-340" fill="#B4B5B4" mask="url(#mask-2)"></path>
                <path d="M117.652,49.616 C117.652,42.691 112.039,37.077 105.114,37.077 C105.114,44.002 110.727,49.616 117.652,49.616" id="Fill-341" fill="#B4B5B4" mask="url(#mask-2)"></path>
                <path d="M104.771,67.136 C112.074,67.136 117.995,61.215 117.995,53.91 C110.692,53.91 104.771,59.832 104.771,67.136" id="Fill-342" fill="#264869" mask="url(#mask-2)"></path>
                <path d="M88.369,49.186 C94.819,49.186 100.048,43.957 100.048,37.506 C93.598,37.506 88.369,42.736 88.369,49.186" id="Fill-343" fill="#DFC64C" mask="url(#mask-2)"></path>
                <path d="M67.674,102.693 C67.674,94.06 60.677,87.062 52.045,87.062 C52.045,95.695 59.043,102.693 67.674,102.693" id="Fill-344" fill="#264869" mask="url(#mask-2)"></path>
                <path d="M364.151,13.888 C369.558,13.888 373.941,9.504 373.941,4.097 C368.534,4.097 364.151,8.48 364.151,13.888" id="Fill-345" fill="#264869" mask="url(#mask-2)"></path>
                <path d="M426.838,19.9 C419.914,19.9 414.301,25.514 414.301,32.439 C421.225,32.439 426.838,26.825 426.838,19.9" id="Fill-346" fill="#DFC64C" mask="url(#mask-2)"></path>
                <path d="M425.035,47.812 C425.035,42.879 421.036,38.88 416.104,38.88 C416.104,43.813 420.102,47.812 425.035,47.812" id="Fill-347" fill="#264869" mask="url(#mask-2)"></path>
                <path d="M141.313,30.635 C146.245,30.635 150.243,26.636 150.243,21.703 C145.311,21.703 141.313,25.702 141.313,30.635" id="Fill-348" fill="#B4B5B4" mask="url(#mask-2)"></path>
                <path d="M168.534,31.752 C168.534,25.586 163.536,20.587 157.371,20.587 C157.371,26.753 162.369,31.752 168.534,31.752" id="Fill-349" fill="#DFC64C" mask="url(#mask-2)"></path>
                <path d="M153.764,51.334 C153.764,42.511 146.613,35.359 137.792,35.359 C137.792,44.182 144.943,51.334 153.764,51.334" id="Fill-350" fill="#264869" mask="url(#mask-2)"></path>
                <path d="M156.34,49.959 C163.644,49.959 169.564,44.038 169.564,36.733 C162.261,36.733 156.34,42.655 156.34,49.959" id="Fill-351" fill="#264869" mask="url(#mask-2)"></path>
                <path d="M186.138,88.865 C179.498,88.865 174.116,94.249 174.116,100.889 C180.755,100.889 186.138,95.506 186.138,88.865" id="Fill-352" fill="#264869" mask="url(#mask-2)"></path>
                <path d="M185.451,83.025 C185.451,77.143 180.684,72.375 174.803,72.375 C174.803,78.257 179.57,83.025 185.451,83.025" id="Fill-353" fill="#DFC64C" mask="url(#mask-2)"></path>
                <path d="M157.456,89.381 C157.456,95.452 162.378,100.374 168.448,100.374 C168.448,94.302 163.527,89.381 157.456,89.381" id="Fill-354" fill="#264869" mask="url(#mask-2)"></path>
                <path d="M219.027,116.606 C219.027,111.578 214.952,107.502 209.924,107.502 C209.924,112.53 214,116.606 219.027,116.606" id="Fill-355" fill="#DFC64C" mask="url(#mask-2)"></path>
                <path d="M220.83,88.522 C213.811,88.522 208.121,94.213 208.121,101.233 C215.14,101.233 220.83,95.542 220.83,88.522" id="Fill-356" fill="#B4B5B4" mask="url(#mask-2)"></path>
                <path d="M274.329,34.5 C274.329,25.298 266.87,17.838 257.669,17.838 C257.669,27.04 265.128,34.5 274.329,34.5" id="Fill-357" fill="#264869" mask="url(#mask-2)"></path>
                <path d="M219.971,55.027 C213.901,55.027 208.98,59.948 208.98,66.02 C215.05,66.02 219.971,61.098 219.971,55.027" id="Fill-358" fill="#264869" mask="url(#mask-2)"></path>
                <path d="M188.972,51.677 C198.172,51.677 205.631,44.217 205.631,35.015 C196.43,35.015 188.972,42.475 188.972,51.677" id="Fill-359" fill="#264869" mask="url(#mask-2)"></path>
                <path d="M408.633,31.408 C408.633,25.621 403.943,20.93 398.157,20.93 C398.157,26.717 402.847,31.408 408.633,31.408" id="Fill-360" fill="#B4B5B4" mask="url(#mask-2)"></path>
                <path d="M396.697,50.045 C404.095,50.045 410.093,44.047 410.093,36.647 C402.694,36.647 396.697,42.646 396.697,50.045" id="Fill-361" fill="#264869" mask="url(#mask-2)"></path>
                <path d="M153.335,85.258 C153.335,76.91 146.568,70.142 138.221,70.142 C138.221,78.491 144.988,85.258 153.335,85.258" id="Fill-362" fill="#264869" mask="url(#mask-2)"></path>
                <path d="M67.416,33.727 C67.416,25.379 60.65,18.611 52.303,18.611 C52.303,26.96 59.069,33.727 67.416,33.727" id="Fill-363" fill="#B4B5B4" mask="url(#mask-2)"></path>
                <path d="M271.323,100.202 C271.323,94.321 266.556,89.552 260.675,89.552 C260.675,95.434 265.442,100.202 271.323,100.202" id="Fill-364" fill="#DFC64C" mask="url(#mask-2)"></path>
                <path d="M291.246,86.804 C282.329,86.804 275.102,94.033 275.102,102.951 C284.018,102.951 291.246,95.721 291.246,86.804" id="Fill-365" fill="#264869" mask="url(#mask-2)"></path>
                <path d="M259.043,84.657 C266.727,84.657 272.955,78.428 272.955,70.744 C265.272,70.744 259.043,76.973 259.043,84.657" id="Fill-366" fill="#264869" mask="url(#mask-2)"></path>
                <path d="M290.73,85.258 C290.73,76.91 283.964,70.142 275.617,70.142 C275.617,78.491 282.383,85.258 290.73,85.258" id="Fill-367" fill="#264869" mask="url(#mask-2)"></path>
                <path d="M293.049,16.292 C301.111,16.292 307.647,9.756 307.647,1.692 C299.585,1.692 293.049,8.229 293.049,16.292" id="Fill-368" fill="#264869" mask="url(#mask-2)"></path>
                <path d="M49.297,53.91 C41.994,53.91 36.073,59.832 36.073,67.136 C43.377,67.136 49.297,61.215 49.297,53.91" id="Fill-369" fill="#264869" mask="url(#mask-2)"></path>
                <path d="M31.092,66.106 C31.092,59.94 26.094,54.941 19.929,54.941 C19.929,61.107 24.927,66.106 31.092,66.106" id="Fill-370" fill="#DFC64C" mask="url(#mask-2)"></path>
                <path d="M50.414,51.076 C50.414,42.538 43.493,35.617 34.957,35.617 C34.957,44.154 41.877,51.076 50.414,51.076" id="Fill-371" fill="#264869" mask="url(#mask-2)"></path>
                <path d="M186.825,118.753 C186.825,111.354 180.827,105.355 173.429,105.355 C173.429,112.755 179.426,118.753 186.825,118.753" id="Fill-372" fill="#264869" mask="url(#mask-2)"></path>
                <path d="M104.084,136.532 C112.146,136.532 118.682,129.995 118.682,121.931 C110.62,121.931 104.084,128.468 104.084,136.532" id="Fill-373" fill="#B4B5B4" mask="url(#mask-2)"></path>
                <path d="M225.467,15.176 C232.297,15.176 237.833,9.639 237.833,2.809 C231.004,2.809 225.467,8.346 225.467,15.176" id="Fill-374" fill="#264869" mask="url(#mask-2)"></path>
                <path d="M236.545,31.065 C236.545,25.657 232.162,21.274 226.755,21.274 C226.755,26.681 231.138,31.065 236.545,31.065" id="Fill-375" fill="#264869" mask="url(#mask-2)"></path>
                <path d="M255.523,19.47 C248.124,19.47 242.127,25.469 242.127,32.868 C249.525,32.868 255.523,26.87 255.523,19.47" id="Fill-376" fill="#DFC64C" mask="url(#mask-2)"></path>
                <path d="M259.816,15.176 C266.646,15.176 272.182,9.639 272.182,2.809 C265.353,2.809 259.816,8.346 259.816,15.176" id="Fill-377" fill="#DFC64C" mask="url(#mask-2)"></path>
                <path d="M253.462,13.63 C253.462,8.507 249.31,4.354 244.188,4.354 C244.188,9.477 248.34,13.63 253.462,13.63" id="Fill-378" fill="#B4B5B4" mask="url(#mask-2)"></path>
                <path d="M395.151,85.945 C404.257,85.945 411.639,78.562 411.639,69.455 C402.533,69.455 395.151,76.838 395.151,85.945" id="Fill-379" fill="#264869" mask="url(#mask-2)"></path>
                <path d="M392.575,84.056 C392.575,77.036 386.885,71.345 379.866,71.345 C379.866,78.365 385.556,84.056 392.575,84.056" id="Fill-380" fill="#264869" mask="url(#mask-2)"></path>
                <path d="M222.548,17.065 C222.548,8.148 215.32,0.919 206.404,0.919 C206.404,9.836 213.632,17.065 222.548,17.065" id="Fill-381" fill="#264869" mask="url(#mask-2)"></path>
                <path d="M221.689,18.955 C213.721,18.955 207.262,25.415 207.262,33.384 C215.23,33.384 221.689,26.924 221.689,18.955" id="Fill-382" fill="#264869" mask="url(#mask-2)"></path>
                <path d="M376.173,67.652 C376.173,59.778 369.791,53.395 361.919,53.395 C361.919,61.269 368.301,67.652 376.173,67.652" id="Fill-383" fill="#264869" mask="url(#mask-2)"></path>
                <path d="M392.918,50.045 C392.918,42.646 386.921,36.647 379.522,36.647 C379.522,44.047 385.52,50.045 392.918,50.045" id="Fill-384" fill="#264869" mask="url(#mask-2)"></path>
                <path d="M189.057,120.986 C189.057,130.094 196.439,137.476 205.545,137.476 C205.545,128.369 198.163,120.986 189.057,120.986" id="Fill-385" fill="#264869" mask="url(#mask-2)"></path>
                <path d="M187.598,121.759 C179.345,121.759 172.656,128.45 172.656,136.703 C180.908,136.703 187.598,130.013 187.598,121.759" id="Fill-386" fill="#264869" mask="url(#mask-2)"></path>
                <path d="M358.827,87.921 C351.144,87.921 344.916,94.15 344.916,101.834 C352.599,101.834 358.827,95.605 358.827,87.921" id="Fill-387" fill="#264869" mask="url(#mask-2)"></path>
                <path d="M289.872,53.824 C282.473,53.824 276.476,59.823 276.476,67.222 C283.874,67.222 289.872,61.224 289.872,53.824" id="Fill-388" fill="#B4B5B4" mask="url(#mask-2)"></path>
                <path d="M357.883,49.358 C357.883,42.718 352.5,37.334 345.86,37.334 C345.86,43.975 351.243,49.358 357.883,49.358" id="Fill-389" fill="#264869" mask="url(#mask-2)"></path>
                <path d="M360.459,17.581 C350.973,17.581 343.284,25.271 343.284,34.758 C352.77,34.758 360.459,27.067 360.459,17.581" id="Fill-390" fill="#264869" mask="url(#mask-2)"></path>
                <path d="M361.06,51.334 C369.881,51.334 377.032,44.182 377.032,35.359 C368.211,35.359 361.06,42.511 361.06,51.334" id="Fill-391" fill="#DFC64C" mask="url(#mask-2)"></path>
            </g>
        </g>
    </g>
</svg>